<?xml version="1.0" encoding="UTF-8"?>
<svg width="271px" height="81px" viewBox="0 0 271 81" version="1.1" xmlns="http://www.w3.org/2000/svg" xmlns:xlink="http://www.w3.org/1999/xlink">
    <!-- Generator: Sketch 56.2 (81672) - https://sketch.com -->
    <title>huobi-1</title>
    <desc>Created with Sketch.</desc>
    <g id="Page-1" stroke="none" stroke-width="1" fill="none" fill-rule="evenodd">
        <g id="Huobi" transform="translate(-164.000000, -290.000000)" fill-rule="nonzero">
            <g id="huobi-1" transform="translate(164.000000, 289.500000)">
                <path d="M100.319296,21.511337 L100.319296,44.1626271 L77.637951,44.1626271 L77.637951,24.4362783 C77.637951,22.8150899 76.312492,21.5 74.678521,21.5 L67,21.5 L67,75.724785 C67,77.3459734 68.325459,78.6610633 69.95943,78.6610633 L77.637951,78.6610633 L77.637951,53.3682565 L100.330723,53.3682565 L100.330723,75.713448 C100.30787,77.3346364 101.610476,78.6724003 103.244447,78.6950743 L103.290153,78.6950743 L110.968674,78.6950743 L110.968674,24.4362783 C110.968674,22.8150899 109.643215,21.5 108.009244,21.5 L100.319296,21.5 L100.319296,21.511337 Z M145.362049,35.6825645 L145.362049,62.8573104 C145.384902,65.3287725 144.082296,67.6301798 141.934138,68.8999218 C135.923867,72.3463643 129.696495,68.0269742 129.696495,62.3584832 L129.696495,38.6188428 C129.696495,36.9976544 128.371036,35.6825645 126.737065,35.6825645 L119.058544,35.6825645 L119.058544,63.3334636 C119.081397,72.2443315 126.348568,79.4546521 135.329696,79.5 L139.694569,79.5 C148.687123,79.477326 155.977147,72.2443315 156,63.3221267 L156,38.6188428 C156,36.9976544 154.674541,35.6825645 153.04057,35.6825645 L145.362049,35.6825645 Z" id="Shape" fill="#1B2143"></path>
                <path d="M262.060206,78.5 L270,78.5 L270,40.4053352 C270,38.8012312 268.62944,37.5 266.939871,37.5 L259,37.5 L259,75.5722298 C258.988261,77.1763338 260.347006,78.4887825 262.036575,78.5 L262.060206,78.5 Z" id="Path" fill="#2CA6E0"></path>
                <ellipse id="Oval" fill="#2CA6E0" transform="translate(264.188989, 27.042254) rotate(-67.499572) translate(-264.188989, -27.042254) " cx="264.188989" cy="27.0422536" rx="5.92771599" ry="5.93919043"></ellipse>
                <path d="M183.499989,35.5 C172.226729,35.5 163,43.4306956 163,54.5245668 L163,60.5209465 C163,71.6148177 172.226729,79.5 183.499989,79.5 C194.773249,79.5 203.999989,71.6148177 203.999989,60.5209465 L203.999989,54.5245668 C204.011541,43.4306956 194.784811,35.5 183.499989,35.5 Z M193.189211,61.2377812 C193.189211,66.4831911 188.830218,69.9763382 183.488427,69.9763382 C178.146636,69.9763382 173.799205,66.4831911 173.799205,61.2377812 L173.799205,53.7508404 C173.799205,48.5054306 178.158198,45.0122834 183.488427,45.0122834 C188.818655,45.0122834 193.189211,48.5054306 193.189211,53.7508404 L193.189211,61.2377812 Z" id="Shape" fill="#1B2143"></path>
                <path d="M230.511551,35.6170025 C227.135355,35.5943064 223.805407,36.3432792 220.764518,37.7844844 L220.764518,24.4391509 C220.764518,22.8163764 219.423289,21.5 217.769877,21.5 L210,21.5 L210,60.5714146 C210,71.6357856 219.226729,79.5 230.499989,79.5 C241.773249,79.5 250.999989,71.6357856 250.999989,60.5714146 L250.999989,54.5909802 C251.011541,43.5266093 241.807936,35.6170025 230.511551,35.6170025 Z M240.212336,61.2863432 C240.212336,66.5178047 235.853342,70.0016631 230.511551,70.0016631 C225.181323,70.0016631 220.822329,66.5178047 220.822329,61.2863432 L220.822329,53.8193113 C220.822329,48.5878497 225.181323,45.1039914 230.511551,45.1039914 C235.84178,45.1039914 240.212336,48.5878497 240.212336,53.8193113 L240.212336,61.2863432 Z" id="Shape" fill="#2CA6E0"></path>
                <path d="M35,25.4227761 C35,13.7971221 29.2840193,3.78487086 24.9306361,0.535180168 C24.9306361,0.535180168 24.5957605,0.352099002 24.6304028,0.821244489 C24.2724323,23.283015 12.6903543,29.3704638 6.32771725,37.5633459 C-8.36062092,56.4893614 5.28844804,77.234746 19.2146554,81.0680079 C26.9745322,83.2192116 17.4132555,77.2690737 16.1776799,64.7165713 C14.6649658,49.5666048 35,37.9867211 35,25.4227761 Z" id="Path" fill="#1B2143"></path>
                <path d="M41.1125286,33.5537874 C41.0208183,33.4971691 40.8947167,33.4518744 40.8144703,33.5990821 C40.5737308,36.3960271 37.6848578,42.3749219 34.0164475,47.8782227 C21.578244,66.5169741 28.6628613,75.5079635 32.6522575,80.3431681 C34.9679414,83.1401132 32.6522575,80.3431681 38.4300036,77.4782811 C45.5719398,73.197936 50.2033078,65.7922596 50.8911347,57.5712793 C52.0260491,44.3225921 43.9784741,35.9770516 41.1125286,33.5537874 L41.1125286,33.5537874 Z" id="Path" fill="#2CA6E0"></path>
            </g>
        </g>
    </g>
</svg>