<?xml version="1.0" encoding="utf-8"?>
<!-- Generator: Adobe Illustrator 23.0.2, SVG Export Plug-In . SVG Version: 6.00 Build 0)  -->
<svg version="1.1" id="Layer_1" xmlns="http://www.w3.org/2000/svg" xmlns:xlink="http://www.w3.org/1999/xlink" x="0px" y="0px"
	 viewBox="0 0 300 68" style="enable-background:new 0 0 300 68;" xml:space="preserve">
<style type="text/css">
	.st0{fill:#159E49;}
	.st1{fill:#333433;}
</style>
<g id="line" transform="translate(792.000000, 406.000000)">
	<polygon id="Fill-10" class="st0" points="-792,-338.3 -532.3,-338.3 -532.3,-345.1 -792,-345.1 	"/>
	<polygon id="Fill-11" class="st0" points="-514.3,-338.3 -492,-338.3 -492,-345.1 -514.3,-345.1 	"/>
</g>
<g id="text" transform="translate(792.000000, 406.000000)">
	<path class="st1" d="M-741.4-355.4h9.3v-35h-9.3V-355.4z M-742.3-400.5c0-1.6,0.5-2.9,1.6-4c1-1,2.4-1.5,4-1.5c1.7,0,3,0.5,4,1.5
		c1,1,1.6,2.3,1.6,4c0,1.6-0.5,2.9-1.6,4c-1,1-2.4,1.5-4,1.5c-1.6,0-2.9-0.5-4-1.5C-741.8-397.5-742.3-398.9-742.3-400.5z"/>
	<path class="st1" d="M-710.7-390.5h9.5v7h-9.5v16.8c0,1.5,0.4,2.7,1.3,3.6c0.9,0.9,2,1.4,3.5,1.4c1.3,0,2.8-0.2,4.4-0.6l1.2,6.9
		c-2.7,0.7-5.3,1.1-7.8,1.1c-1.7,0-3.3-0.3-4.7-0.8c-1.4-0.5-2.6-1.3-3.7-2.3c-1-1-1.8-2.2-2.4-3.6c-0.6-1.4-0.8-2.9-0.8-4.6v-17.7
		h-6.4v-7h6.4v-10.3h8.9V-390.5z"/>
	<path class="st1" d="M-695.7-380.8c0-1.5,0.3-3,1-4.3c0.7-1.3,1.6-2.4,2.7-3.4c1.2-0.9,2.6-1.7,4.2-2.2s3.5-0.8,5.4-0.8
		c2,0,4.1,0.2,6.2,0.6c2.1,0.4,4.3,1,6.5,1.8l-2,6.6c-1.7-0.7-3.4-1.2-5.1-1.6c-1.7-0.4-3.3-0.6-4.8-0.6c-1.6,0-2.9,0.3-3.9,1
		c-1,0.7-1.4,1.6-1.4,2.8c0,1.1,0.5,1.9,1.4,2.4c0.9,0.5,2,1,3.4,1.4c1.4,0.4,2.8,0.8,4.4,1.1c1.6,0.4,3.1,1,4.4,1.8
		c1.4,0.8,2.5,1.9,3.4,3.2c0.9,1.4,1.4,3.2,1.4,5.4c0,1.6-0.3,3-1,4.4c-0.7,1.3-1.6,2.5-2.8,3.5c-1.2,1-2.6,1.7-4.4,2.3
		c-1.7,0.5-3.6,0.8-5.6,0.8c-4.3,0-8.9-0.9-13.7-2.8l1.9-6.5c4.1,1.7,7.8,2.5,11.1,2.5c1.7,0,3.1-0.4,4.1-1.1c1-0.7,1.5-1.7,1.5-3
		c0-1.1-0.5-1.9-1.4-2.5c-0.9-0.6-2-1.1-3.4-1.5c-1.4-0.4-2.8-0.8-4.4-1.2c-1.6-0.4-3-1-4.4-1.8c-1.4-0.8-2.5-1.8-3.4-3.1
		C-695.3-376.8-695.7-378.6-695.7-380.8"/>
	<path class="st1" d="M-649.8-390.5h9.5v7h-9.5v16.8c0,1.5,0.4,2.7,1.3,3.6c0.9,0.9,2,1.4,3.5,1.4c1.3,0,2.8-0.2,4.4-0.6l1.2,6.9
		c-2.7,0.7-5.3,1.1-7.8,1.1c-1.7,0-3.3-0.3-4.7-0.8c-1.4-0.5-2.6-1.3-3.7-2.3s-1.8-2.2-2.4-3.6c-0.6-1.4-0.8-2.9-0.8-4.6v-17.7h-6.4
		v-7h6.4v-10.3h8.9V-390.5z"/>
	<path class="st1" d="M-625.6-366.1c0,1.4,0.6,2.6,1.7,3.6c1.2,1,2.6,1.5,4.3,1.5c2.4,0,4.3-0.8,5.8-2.3c1.5-1.5,2.2-3.5,2.2-5.9
		v-2.1c-1.7-0.5-3.6-0.7-5.7-0.7c-2.6,0-4.6,0.5-6.1,1.6C-624.8-369.4-625.6-367.9-625.6-366.1 M-634.3-365.6c0-3.7,1.4-6.6,4.2-8.6
		c2.8-2,6.7-3,11.8-3c1.1,0,2.2,0.1,3.3,0.2c1.1,0.1,2.3,0.3,3.4,0.5v-1.9c0-1.8-0.6-3.3-1.9-4.4c-1.3-1.1-3-1.7-5.2-1.7
		c-3.5,0-7.3,0.8-11.4,2.5l-2.3-6.4c5-2,9.9-2.9,14.7-2.9c2.2,0,4.1,0.3,5.9,1c1.8,0.6,3.3,1.5,4.6,2.7c1.3,1.1,2.3,2.5,3,4.1
		c0.7,1.6,1.1,3.4,1.1,5.3v14.3c0,0.8,0.2,1.4,0.6,1.8c0.4,0.5,1,0.7,1.8,0.7c0.4,0,0.7,0,1.1-0.1c0.3,0,0.6-0.1,0.7-0.1l0.6,6.7
		c-0.8,0.1-1.5,0.3-2.3,0.4c-0.8,0.1-1.6,0.1-2.5,0.1c-1.8,0-3.3-0.4-4.6-1.3c-1.3-0.8-2.2-2-2.8-3.5c-1.5,1.5-3.3,2.7-5.2,3.5
		c-2,0.8-4,1.2-6.2,1.2c-1.8,0-3.5-0.3-5-0.8c-1.5-0.5-2.8-1.3-3.9-2.3c-1.1-1-1.9-2.1-2.5-3.5C-634-362.5-634.3-364-634.3-365.6"/>
	<path class="st1" d="M-593.1-390.6h7.2l1.1,4.8c1.4-1.8,3-3.2,5-4.2c2-1,4.1-1.5,6.4-1.5c2.6,0,4.8,0.6,6.8,1.7
		c1.9,1.1,3.4,2.7,4.4,4.7c1.6-2.1,3.5-3.7,5.6-4.8c2.1-1.1,4.4-1.6,7-1.6c1.9,0,3.6,0.3,5.2,0.9c1.6,0.6,3,1.5,4.1,2.7
		c1.2,1.1,2.1,2.5,2.7,4.1c0.6,1.6,1,3.3,1,5.2v23.2h-9.1v-21.7c0-2-0.6-3.6-1.9-4.9c-1.3-1.2-2.9-1.9-4.9-1.9
		c-2.3,0-4.2,0.8-5.7,2.4c-1.5,1.6-2.2,3.6-2.2,6.2v19.9h-9.1v-21.7c0-2-0.6-3.6-1.8-4.9c-1.2-1.2-2.8-1.9-4.8-1.9
		c-2.4,0-4.3,0.8-5.8,2.4c-1.5,1.6-2.2,3.6-2.2,6.2v19.9h-9.1V-390.6z"/>
	<path class="st1" d="M-502-373.1c0-1.6-0.2-3.1-0.7-4.5c-0.4-1.4-1.1-2.6-1.9-3.5c-0.8-1-1.7-1.7-2.8-2.3s-2.3-0.8-3.6-0.8
		c-2.4,0-4.3,0.8-5.9,2.5c-1.5,1.6-2.3,3.7-2.3,6.3v4.7c0,1.3,0.2,2.5,0.6,3.5c0.4,1.1,1,2,1.7,2.8s1.6,1.4,2.6,1.8
		c1,0.4,2.1,0.6,3.3,0.6c1.3,0,2.5-0.3,3.6-0.8c1.1-0.5,2-1.3,2.8-2.3c0.8-1,1.4-2.2,1.9-3.5S-502-371.5-502-373.1z M-528-390.6h7.2
		l1.1,4.5c1.3-1.7,2.8-3,4.7-4c1.9-0.9,4-1.4,6.3-1.4c2.3,0,4.4,0.5,6.4,1.4c1.9,0.9,3.6,2.2,5,3.8c1.4,1.6,2.5,3.5,3.3,5.8
		c0.8,2.2,1.2,4.7,1.2,7.4c0,2.7-0.4,5.2-1.2,7.4c-0.8,2.2-1.9,4.2-3.3,5.8c-1.4,1.6-3.1,2.9-5,3.8c-1.9,0.9-4.1,1.4-6.4,1.4
		c-2.1,0-4.1-0.4-5.8-1.2c-1.8-0.8-3.3-2-4.5-3.6v21.3h-9V-390.6z"/>
	<path class="st1" d="M-761.4-364.4c-1.4,1.4-3.3,2-5.7,2h-11.2v-14.5h11.2c2.3,0,4.2,0.7,5.7,2c1.4,1.3,2.1,3.1,2.1,5.2
		C-759.2-367.5-759.9-365.7-761.4-364.4z M-778.3-396.5h10.3c2.1,0,3.8,0.6,5.2,1.9c1.4,1.2,2,2.9,2,4.9c0,2-0.7,3.6-2,4.8
		c-1.4,1.2-3.1,1.8-5.2,1.8h-10.3V-396.5z M-752.2-376c-1.5-2.1-3.5-3.6-6-4.5c2-0.9,3.5-2.2,4.7-4c1.2-1.8,1.8-3.9,1.8-6.3
		c0-1.9-0.4-3.6-1.1-5.1c-0.7-1.6-1.8-2.9-3.1-4c-1.3-1.1-2.9-2-4.7-2.6c-1.8-0.6-3.8-0.9-6-0.9H-792v6.4h0c3.9,0,7,3.2,7,7.1
		c0,3.9-3.1,7.1-7,7.1v5.8h0c3.9,0,7,3.2,7,7.1v1.1c0,3.9-3.1,7.1-7,7.1h0v6.4h26.5c2.3,0,4.3-0.3,6.2-1c1.9-0.6,3.5-1.5,4.9-2.7
		c1.4-1.2,2.5-2.6,3.2-4.2c0.8-1.6,1.2-3.4,1.2-5.4C-750-371.5-750.7-373.9-752.2-376z"/>
</g>
</svg>
