<?xml version="1.0" encoding="UTF-8"?>
<svg width="200px" height="200px" viewBox="0 0 200 200" version="1.1" xmlns="http://www.w3.org/2000/svg" xmlns:xlink="http://www.w3.org/1999/xlink">
    <!-- Generator: Sketch 55.2 (78181) - https://sketchapp.com -->
    <title>1 Address</title>
    <desc>Created with Sketch.</desc>
    <defs>
        <linearGradient x1="50%" y1="0%" x2="50%" y2="100%" id="linearGradient-1">
            <stop stop-color="#65C1E8" offset="0%"></stop>
            <stop stop-color="#358DCC" offset="100%"></stop>
        </linearGradient>
        <linearGradient x1="107.375318%" y1="41.7017047%" x2="-11.5148771%" y2="89.911986%" id="linearGradient-2">
            <stop stop-color="#9CD3FA" offset="0%"></stop>
            <stop stop-color="#FFFFFF" offset="100%"></stop>
        </linearGradient>
        <linearGradient x1="107.375318%" y1="41.7017047%" x2="-11.5148771%" y2="89.911986%" id="linearGradient-3">
            <stop stop-color="#B7E1FF" offset="0%"></stop>
            <stop stop-color="#FFFFFF" offset="100%"></stop>
        </linearGradient>
        <linearGradient x1="50%" y1="100%" x2="50%" y2="3.061617e-15%" id="linearGradient-4">
            <stop stop-color="#94DEFF" offset="0%"></stop>
            <stop stop-color="#5BBBFF" offset="100%"></stop>
        </linearGradient>
        <path d="M80.6896552,22.3448276 L112,22.3448276 C116.418278,22.3448276 120,25.9265496 120,30.3448276 L120,59.862069 C120,64.280347 116.418278,67.862069 112,67.862069 L80.6896552,67.862069 C68.120416,67.862069 57.9310345,57.6726874 57.9310345,45.1034483 C57.9310345,32.5342091 68.120416,22.3448276 80.6896552,22.3448276 Z" id="path-5"></path>
        <filter x="-32.2%" y="-35.2%" width="164.4%" height="187.9%" filterUnits="objectBoundingBox" id="filter-6">
            <feOffset dx="0" dy="4" in="SourceAlpha" result="shadowOffsetOuter1"></feOffset>
            <feGaussianBlur stdDeviation="6" in="shadowOffsetOuter1" result="shadowBlurOuter1"></feGaussianBlur>
            <feColorMatrix values="0 0 0 0 0.149019608   0 0 0 0 0.196078431   0 0 0 0 0.219607843  0 0 0 0.12 0" type="matrix" in="shadowBlurOuter1"></feColorMatrix>
        </filter>
        <radialGradient cx="50%" cy="12.0597028%" fx="50%" fy="12.0597028%" r="188.396953%" id="radialGradient-7">
            <stop stop-color="#358DCC" stop-opacity="0" offset="0%"></stop>
            <stop stop-color="#5BBBFF" stop-opacity="0.6" offset="100%"></stop>
        </radialGradient>
        <circle id="path-8" cx="77.3793103" cy="45.1034483" r="5.37931034"></circle>
        <filter x="-167.3%" y="-167.3%" width="434.6%" height="434.6%" filterUnits="objectBoundingBox" id="filter-9">
            <feOffset dx="0" dy="0" in="SourceAlpha" result="shadowOffsetOuter1"></feOffset>
            <feGaussianBlur stdDeviation="6" in="shadowOffsetOuter1" result="shadowBlurOuter1"></feGaussianBlur>
            <feColorMatrix values="0 0 0 0 0.149019608   0 0 0 0 0.196078431   0 0 0 0 0.219607843  0 0 0 0.08 0" type="matrix" in="shadowBlurOuter1"></feColorMatrix>
        </filter>
        <linearGradient x1="107.375318%" y1="41.5794479%" x2="-11.5148771%" y2="90.5%" id="linearGradient-10">
            <stop stop-color="#9CD3FA" offset="0%"></stop>
            <stop stop-color="#FFFFFF" offset="100%"></stop>
        </linearGradient>
        <linearGradient x1="107.375318%" y1="41.5794479%" x2="-11.5148771%" y2="90.5%" id="linearGradient-11">
            <stop stop-color="#B7E1FF" offset="0%"></stop>
            <stop stop-color="#FFFFFF" offset="100%"></stop>
        </linearGradient>
        <path d="M81.6896552,22.3448276 L113,22.3448276 C117.418278,22.3448276 121,25.9265496 121,30.3448276 L121,59.862069 C121,64.280347 117.418278,67.862069 113,67.862069 L81.6896552,67.862069 C69.120416,67.862069 58.9310345,57.6726874 58.9310345,45.1034483 C58.9310345,32.5342091 69.120416,22.3448276 81.6896552,22.3448276 Z" id="path-12"></path>
        <filter x="-32.2%" y="-35.2%" width="164.4%" height="187.9%" filterUnits="objectBoundingBox" id="filter-13">
            <feOffset dx="0" dy="4" in="SourceAlpha" result="shadowOffsetOuter1"></feOffset>
            <feGaussianBlur stdDeviation="6" in="shadowOffsetOuter1" result="shadowBlurOuter1"></feGaussianBlur>
            <feColorMatrix values="0 0 0 0 0.149019608   0 0 0 0 0.196078431   0 0 0 0 0.219607843  0 0 0 0.12 0" type="matrix" in="shadowBlurOuter1"></feColorMatrix>
        </filter>
        <circle id="path-14" cx="78.3793103" cy="45.1034483" r="5.37931034"></circle>
        <filter x="-167.3%" y="-167.3%" width="434.6%" height="434.6%" filterUnits="objectBoundingBox" id="filter-15">
            <feOffset dx="0" dy="0" in="SourceAlpha" result="shadowOffsetOuter1"></feOffset>
            <feGaussianBlur stdDeviation="6" in="shadowOffsetOuter1" result="shadowBlurOuter1"></feGaussianBlur>
            <feColorMatrix values="0 0 0 0 0.149019608   0 0 0 0 0.196078431   0 0 0 0 0.219607843  0 0 0 0.08 0" type="matrix" in="shadowBlurOuter1"></feColorMatrix>
        </filter>
    </defs>
    <g id="1-Address" stroke="none" stroke-width="1" fill="none" fill-rule="evenodd">
        <rect id="Rectangle" fill="url(#linearGradient-1)" x="0" y="0" width="200" height="200" rx="40"></rect>
        <g id="Group" transform="translate(20.000000, 20.000000)">
            <rect id="Rectangle" fill="url(#linearGradient-2)" x="8.27586207" y="0" width="100.965517" height="90.2068966" rx="12"></rect>
            <rect id="Rectangle" fill="url(#linearGradient-3)" x="0" y="0" width="100.965517" height="90.2068966" rx="12"></rect>
            <path d="M32.5937033,57.6327037 L13,45.644451 L32.5937033,12 L52.1874066,45.644451 L32.5937033,57.6327037 Z M32.5937033,61.370976 L52.1874066,49.5116293 L32.5937033,77.9998426 L13,49.5116293 L32.5937033,61.370976 Z" id="E" fill="#358DCC" fill-rule="nonzero" opacity="0.5" transform="translate(32.593703, 44.999921) rotate(-20.000000) translate(-32.593703, -44.999921) "></path>
            <g id="Rectangle">
                <use fill="black" fill-opacity="1" filter="url(#filter-6)" xlink:href="#path-5"></use>
                <use fill="url(#linearGradient-4)" fill-rule="evenodd" xlink:href="#path-5"></use>
            </g>
            <g id="Oval">
                <use fill="black" fill-opacity="1" filter="url(#filter-9)" xlink:href="#path-8"></use>
                <use fill="#FFFFFF" fill-rule="evenodd" xlink:href="#path-8"></use>
                <use fill="url(#radialGradient-7)" fill-rule="evenodd" xlink:href="#path-8"></use>
            </g>
        </g>
        <g id="Group-Copy" transform="translate(59.000000, 90.000000)">
            <rect id="Rectangle" fill="url(#linearGradient-10)" x="8" y="0" width="100" height="90" rx="12"></rect>
            <rect id="Rectangle" fill="url(#linearGradient-11)" x="0" y="0" width="100" height="90" rx="12"></rect>
            <path d="M37.7537628,32.794631 C28.1089705,47.8980463 22.1848284,68.8729605 19.8729681,76 C18.5725467,62.5583296 25.435882,44.2422074 30.4569536,33.4224013 C28.1450933,33.5331843 15.8272125,34.4194483 9,41.6203431 C9,41.6203431 12.6845274,30.0619837 33.9608669,26.5538554 L34.0331126,26.4061448 C50.6857315,1.55382567 63.1842264,16.3987473 63.1842264,16.3987473 C55.5984347,15.106279 48.9879591,18.9836839 43.3527995,25.2983148 C46.0981337,25.1875318 63.8705599,24.9659658 69,39.3308278 C69,39.3308278 58.704997,31.797584 37.7537628,32.794631 Z M49.5,50 C45.364486,50 42,53.588785 42,58 C42,62.411215 45.364486,66 49.5,66 C53.635514,66 57,62.411215 57,58 L57,58 C57,53.5514019 53.635514,50 49.5,50 Z" id="Shape" fill="#358DCC" fill-rule="nonzero" opacity="0.5"></path>
            <g id="Rectangle">
                <use fill="black" fill-opacity="1" filter="url(#filter-13)" xlink:href="#path-12"></use>
                <use fill="url(#linearGradient-4)" fill-rule="evenodd" xlink:href="#path-12"></use>
            </g>
            <g id="Oval">
                <use fill="black" fill-opacity="1" filter="url(#filter-15)" xlink:href="#path-14"></use>
                <use fill="#FFFFFF" fill-rule="evenodd" xlink:href="#path-14"></use>
                <use fill="url(#radialGradient-7)" fill-rule="evenodd" xlink:href="#path-14"></use>
            </g>
        </g>
    </g>
</svg>
