<?xml version="1.0" encoding="UTF-8"?>
<svg width="19px" height="21px" viewBox="0 0 19 21" version="1.1" xmlns="http://www.w3.org/2000/svg" xmlns:xlink="http://www.w3.org/1999/xlink">
    <!-- Generator: Sketch 55.2 (78181) - https://sketchapp.com -->
    <title>c</title>
    <desc>Created with Sketch.</desc>
    <g id="HiFi-Wires" stroke="none" stroke-width="1" fill="none" fill-rule="evenodd">
        <path d="M17.6197512,3.07816058 C17.9843335,3.44274284 18.1666249,3.88545052 18.1666249,4.40628241 L18.1666249,14.8750075 C18.1666249,15.3958393 17.9843335,15.838547 17.6197512,16.2031293 C17.255169,16.5677115 16.8124613,16.750003 16.2916294,16.750003 L13.1666369,16.750003 L13.1666369,18.6249985 C13.1666369,19.1458304 12.9843454,19.5885381 12.6197632,19.9531203 C12.2551809,20.3177026 11.8124732,20.499994 11.2916413,20.499994 L2.5416622,20.499994 C2.0208303,20.499994 1.57812263,20.3177026 1.21354036,19.9531203 C0.848958097,19.5885381 0.666666667,19.1458304 0.666666667,18.6249985 L0.666666667,6.12502831 C0.666666667,5.60419642 0.848958097,5.16148874 1.21354036,4.79690648 C1.57812263,4.43232421 2.0208303,4.25003278 2.5416622,4.25003278 L5.66665475,4.25003278 L5.66665475,2.37503725 C5.66665475,1.85420536 5.84894618,1.41149768 6.21352844,1.04691542 C6.57811071,0.682333154 7.02081838,0.500041723 7.54165028,0.500041723 L14.2603843,0.500041723 C14.7812161,0.500041723 15.2239238,0.682333154 15.5885061,1.04691542 L17.6197512,3.07816058 Z M11.0572669,18.6249985 C11.1093499,18.6249985 11.1614335,18.5989567 11.2135165,18.5468737 C11.2655995,18.4947907 11.2916413,18.4427071 11.2916413,18.3906241 L11.2916413,16.750003 L7.54165028,16.750003 C7.02081838,16.750003 6.57811071,16.5677115 6.21352844,16.2031293 C5.84894618,15.838547 5.66665475,15.3958393 5.66665475,14.8750075 L5.66665475,6.12502831 L2.77603664,6.12502831 C2.72395363,6.12502831 2.67187002,6.15107012 2.61978701,6.20315313 C2.567704,6.25523614 2.5416622,6.30731974 2.5416622,6.35940275 L2.5416622,18.3906241 C2.5416622,18.4427071 2.567704,18.4947907 2.61978701,18.5468737 C2.67187002,18.5989567 2.72395363,18.6249985 2.77603664,18.6249985 L11.0572669,18.6249985 Z M16.057255,14.8750075 C16.109338,14.8750075 16.1614216,14.8489656 16.2135046,14.7968826 C16.2655876,14.7447996 16.2916294,14.692716 16.2916294,14.640633 L16.2916294,6.75002682 L12.8541376,6.75002682 C12.5937214,6.75002682 12.3723681,6.6588814 12.1900767,6.47658997 C12.0077853,6.29429854 11.9166398,6.0729453 11.9166398,5.81252906 L11.9166398,2.37503725 L7.77602472,2.37503725 C7.72394171,2.37503725 7.6718581,2.40107906 7.61977509,2.45316207 C7.56769208,2.50524508 7.54165028,2.55732868 7.54165028,2.60941169 L7.54165028,14.640633 C7.54165028,14.692716 7.56769208,14.7447996 7.61977509,14.7968826 C7.6718581,14.8489656 7.72394171,14.8750075 7.77602472,14.8750075 L16.057255,14.8750075 Z M16.2916354,4.87503725 L16.2916354,4.48440722 C16.2916354,4.43232421 16.2655876,4.38024061 16.2135046,4.3281576 L14.3385091,2.45316207 C14.2864261,2.40107906 14.2343425,2.37503725 14.1822594,2.37503725 L13.7916354,2.37503725 L13.7916354,4.87503725 L16.2916354,4.87503725 Z" id="c" fill="#358DCC" fill-rule="nonzero"></path>
    </g>
</svg>
