<?xml version="1.0" encoding="UTF-8"?>
<svg width="200px" height="200px" viewBox="0 0 200 200" version="1.1" xmlns="http://www.w3.org/2000/svg" xmlns:xlink="http://www.w3.org/1999/xlink">
    <!-- Generator: Sketch 55.2 (78181) - https://sketchapp.com -->
    <title>No Exchanges!</title>
    <desc>Created with Sketch.</desc>
    <defs>
        <linearGradient x1="50%" y1="0%" x2="50%" y2="100%" id="linearGradient-1">
            <stop stop-color="#65C1E8" offset="0%"></stop>
            <stop stop-color="#358DCC" offset="100%"></stop>
        </linearGradient>
        <linearGradient x1="107.028382%" y1="39.6042567%" x2="-11.1429109%" y2="100%" id="linearGradient-2">
            <stop stop-color="#B7E1FF" offset="0%"></stop>
            <stop stop-color="#FFFFFF" offset="100%"></stop>
        </linearGradient>
        <linearGradient x1="105.737437%" y1="39.6042567%" x2="-9.75882583%" y2="100%" id="linearGradient-3">
            <stop stop-color="#B7E1FF" offset="0%"></stop>
            <stop stop-color="#FFFFFF" offset="100%"></stop>
        </linearGradient>
        <linearGradient x1="50%" y1="0%" x2="50%" y2="100%" id="linearGradient-4">
            <stop stop-color="#FF5B5B" offset="0%"></stop>
            <stop stop-color="#AE1B1B" offset="100%"></stop>
        </linearGradient>
    </defs>
    <g id="No-Exchanges!" stroke="none" stroke-width="1" fill="none" fill-rule="evenodd">
        <rect id="Rectangle" fill="url(#linearGradient-1)" x="0" y="0" width="200" height="200" rx="40"></rect>
        <g id="Group" transform="translate(49.000000, 44.000000)">
            <path d="M61.4163157,48.8845536 L59.1593237,40.6607693 C58.7208197,39.0629957 59.6605934,37.4122667 61.2583669,36.9737627 C61.972087,36.7778845 62.7330238,36.8527461 63.3948884,37.1839557 L96.2560037,53.6282789 C97.7376909,54.3697431 98.3377601,56.1719634 97.5962958,57.6536505 C97.306118,58.2335204 96.8358736,58.7037648 96.2560037,58.9939426 L63.3948884,75.4382658 C61.9132013,76.17973 60.110981,75.5796608 59.3695167,74.0979737 C59.0383072,73.436109 58.9634455,72.6751723 59.1593237,71.9614522 L62.4138324,60.103024 C37.3097631,54.647275 24.2001865,36.4407592 24.2001865,6.33857361 C24.2001865,3.37189831 26.4399937,0.966932807 29.2029358,0.966932807 C31.965878,0.966932807 34.2056851,3.37189831 34.2056851,6.33857361 C34.2056851,29.8427326 42.9682219,43.7887879 61.4163157,48.8845536 Z" id="Combined-Shape-Copy" fill="url(#linearGradient-2)" transform="translate(62.600093, 39.483466) rotate(180.000000) translate(-62.600093, -39.483466) "></path>
            <path d="M37.2161291,81.9176208 L34.9591372,73.6938365 C34.5206332,72.0960629 35.4604069,70.4453339 37.0581804,70.0068299 C37.7719004,69.8109517 38.5328372,69.8858133 39.1947018,70.2170229 L72.0558172,86.6613461 C73.5375043,87.4028103 74.1375735,89.2050306 73.3961093,90.6867177 C73.1059315,91.2665876 72.6356871,91.736832 72.0558172,92.0270098 L39.1947018,108.471333 C37.7130147,109.212797 35.9107944,108.612728 35.1693302,107.131041 C34.8381206,106.469176 34.7632589,105.708239 34.9591372,104.994519 L38.2136458,93.1360912 C13.1095765,87.6803422 3.97903932e-13,69.4738264 3.97903932e-13,39.3716408 C3.97903932e-13,36.4049655 2.23980715,34 5.00274929,34 C7.76569143,34 10.0054986,36.4049655 10.0054986,39.3716408 C10.0054986,62.8757998 18.7680354,76.8218551 37.2161291,81.9176208 Z" id="Combined-Shape-Copy" fill="url(#linearGradient-3)"></path>
        </g>
        <path d="M150.357187,138.161544 C158.404422,127.559039 163.18,114.337218 163.18,100 C163.18,65.1066495 134.89335,36.82 100,36.82 C85.6627824,36.82 72.4409608,41.5955777 61.8384555,49.6428127 L150.357187,138.161544 Z M137.699171,150.704814 L49.295186,62.3008288 C41.458232,72.8242288 36.82,85.8704558 36.82,100 C36.82,134.89335 65.1066495,163.18 100,163.18 C114.129544,163.18 127.175771,158.541768 137.699171,150.704814 Z M100,19 C144.735065,19 181,55.2649353 181,100 C181,144.735065 144.735065,181 100,181 C55.2649353,181 19,144.735065 19,100 C19,55.2649353 55.2649353,19 100,19 Z" id="Combined-Shape" fill="url(#linearGradient-4)" transform="translate(100.000000, 100.000000) scale(-1, 1) translate(-100.000000, -100.000000) "></path>
    </g>
</svg>
