<?xml version="1.0" encoding="UTF-8"?>
<svg width="72px" height="72px" viewBox="0 0 72 72" version="1.1" xmlns="http://www.w3.org/2000/svg" xmlns:xlink="http://www.w3.org/1999/xlink">
    <!-- Generator: Sketch 55.2 (78181) - https://sketchapp.com -->
    <title>Manage Copy</title>
    <desc>Created with Sketch.</desc>
    <defs>
        <linearGradient x1="50%" y1="0%" x2="50%" y2="100%" id="linearGradient-1">
            <stop stop-color="#65C1E8" offset="0%"></stop>
            <stop stop-color="#358DCC" offset="100%"></stop>
        </linearGradient>
        <radialGradient cx="50%" cy="12.0597028%" fx="50%" fy="12.0597028%" r="242.452394%" gradientTransform="translate(0.500000,0.120597),scale(1.000000,0.777047),rotate(90.000000),translate(-0.500000,-0.120597)" id="radialGradient-2">
            <stop stop-color="#358DCC" stop-opacity="0" offset="0%"></stop>
            <stop stop-color="#5BBBFF" stop-opacity="0.6" offset="100%"></stop>
        </radialGradient>
        <path d="M17.6232556,38.4412214 L29.2482145,11.6685888 C29.9081143,10.1488196 31.6750851,9.45175774 33.1948542,10.1116575 C33.8924069,10.4145422 34.4489008,10.9710361 34.7517855,11.6685888 L46.3767444,38.4412214 C47.0366442,39.9609905 46.3395823,41.7279613 44.8198131,42.3878611 C44.1559632,42.6761117 43.4102876,42.7146632 42.7202513,42.4964085 L33.2062768,39.4871905 C32.4212581,39.2388934 31.5787419,39.2388934 30.7937232,39.4871905 L21.2797487,42.4964085 C19.7000305,42.9960647 18.0143644,42.1205014 17.5147082,40.5407832 C17.2964535,39.8507469 17.335005,39.1050713 17.6232556,38.4412214 Z M17.0606061,49.6341737 L46.9393939,49.6341737 C48.0774352,49.6341737 49,50.5567385 49,51.6947798 C49,52.8328211 48.0774352,53.7553858 46.9393939,53.7553858 L17.0606061,53.7553858 C15.9225648,53.7553858 15,52.8328211 15,51.6947798 C15,50.5567385 15.9225648,49.6341737 17.0606061,49.6341737 Z" id="path-3"></path>
        <filter x="-52.9%" y="-41.5%" width="205.9%" height="182.6%" filterUnits="objectBoundingBox" id="filter-4">
            <feOffset dx="0" dy="0" in="SourceAlpha" result="shadowOffsetOuter1"></feOffset>
            <feGaussianBlur stdDeviation="6" in="shadowOffsetOuter1" result="shadowBlurOuter1"></feGaussianBlur>
            <feColorMatrix values="0 0 0 0 0.149019608   0 0 0 0 0.196078431   0 0 0 0 0.219607843  0 0 0 0.28 0" type="matrix" in="shadowBlurOuter1"></feColorMatrix>
        </filter>
    </defs>
    <g id="Manage-Copy" stroke="none" stroke-width="1" fill="none" fill-rule="evenodd">
        <g id="Group-7" transform="translate(4.000000, 4.000000)">
            <rect id="Rectangle" fill="url(#linearGradient-1)" x="0" y="0" width="64" height="64" rx="20"></rect>
            <g id="Combined-Shape">
                <use fill="black" fill-opacity="1" filter="url(#filter-4)" xlink:href="#path-3"></use>
                <use fill="#FFFFFF" fill-rule="evenodd" xlink:href="#path-3"></use>
                <use fill="url(#radialGradient-2)" fill-rule="evenodd" xlink:href="#path-3"></use>
            </g>
        </g>
    </g>
</svg>
